<?xml version="1.0" encoding="iso-8859-1"?>
<!-- Uploaded to: SVG Repo, www.svgrepo.com, Generator: SVG Repo Mixer Tools -->
<svg height="800px" width="800px" version="1.1" id="Layer_1" xmlns="http://www.w3.org/2000/svg" xmlns:xlink="http://www.w3.org/1999/xlink" 
	 viewBox="0 0 512 512" xml:space="preserve">
<path style="fill:#89E8E8;" d="M463.092,154.38H164.421v300.861c0,26.283,21.306,47.588,47.588,47.588h203.494
	c26.283,0,47.588-21.306,47.588-47.588V154.38z"/>
<path style="fill:#76D3D1;" d="M220.04,455.241V154.38h-55.619v300.861c0,26.283,21.306,47.588,47.588,47.588h55.619
	C241.347,502.829,220.04,481.523,220.04,455.241z"/>
<circle style="fill:#F28941;" cx="164.424" cy="154.385" r="117.675"/>
<g>
	<polygon style="fill:#F2D546;" points="465.248,23.452 411.712,154.383 370.946,154.383 430.329,9.172 	"/>
	<circle style="fill:#F2D546;" cx="164.424" cy="154.385" r="77.822"/>
</g>
<polygon style="fill:#B3E281;" points="411.712,154.383 336.202,339.013 304.045,317.983 370.946,154.383 "/>
<path style="fill:#D37231;" d="M282.094,154.383c0,64.987-52.688,117.676-117.676,117.676V154.383
	C164.418,154.383,282.094,154.383,282.094,154.383z"/>
<path style="fill:#B3E281;" d="M242.23,154.383c0,42.975-34.838,77.812-77.812,77.812v-77.812
	C164.418,154.383,242.23,154.383,242.23,154.383z"/>
<path style="fill:#F24141;" d="M432.107,346.556v103.839c0,11.829-9.619,21.448-21.448,21.448H216.844
	c-11.815,0-21.434-9.619-21.434-21.448V307.489C312.412,260.338,306.619,381.584,432.107,346.556z"/>
<polyline style="fill:#F28941;" points="317.248,327.103 280.726,416.421 315.645,430.702 350.388,345.721 "/>
<path style="fill:#FFFFFF;" d="M442.7,154.38v300.861c0,26.283-21.306,47.588-47.588,47.588h20.391
	c26.283,0,47.588-21.306,47.588-47.588V154.38H442.7z"/>
<path d="M432.107,412.95c-5.066,0-9.171,4.106-9.171,9.171v28.276c0,6.768-5.508,12.276-12.276,12.276H216.844
	c-6.761,0-12.261-5.506-12.261-12.276V313.785c7.163-2.624,14.014-4.628,20.433-5.976c4.957-1.039,8.133-5.901,7.093-10.859
	c-1.041-4.956-5.899-8.137-10.859-7.093c-9.168,1.924-19.014,4.993-29.265,9.125c-3.47,1.399-5.744,4.764-5.744,8.506v142.908
	c0,16.883,13.729,30.619,30.604,30.619h193.818c16.884,0,30.619-13.735,30.619-30.619v-28.276
	C441.279,417.056,437.174,412.95,432.107,412.95z"/>
<path d="M89.605,130.999c1.217,0.544,2.489,0.802,3.741,0.802c3.506,0,6.853-2.021,8.376-5.428
	c11.048-24.691,35.659-40.644,62.699-40.644c26.343,0,49.95,14.686,61.609,38.329c2.24,4.543,7.739,6.409,12.282,4.169
	c4.543-2.24,6.409-7.739,4.169-12.282c-14.772-29.951-44.684-48.558-78.06-48.558c-34.263,0-65.446,20.212-79.442,51.495
	C82.91,123.505,84.982,128.93,89.605,130.999z"/>
<path d="M299.749,304.258c-12.659-7.797-26.527-14.302-43.613-16.331c-5.047-0.598-9.592,2.997-10.189,8.027
	s2.997,9.592,8.027,10.189c20.33,2.413,35.744,13.014,51.998,24.303l-33.736,82.504c-1.916,4.688,0.33,10.043,5.019,11.961
	l34.92,14.28c1.113,0.455,2.292,0.682,3.472,0.682c1.207,0,2.414-0.238,3.547-0.714c2.244-0.942,4.021-2.734,4.941-4.987
	l31.45-76.924c17.907,5.471,39.475,7.148,67.352,1.047v33.255c0,5.065,4.105,9.171,9.171,9.171c5.066,0,9.171-4.106,9.171-9.171
	v-44.992c0-2.868-1.341-5.571-3.626-7.305c-2.285-1.734-5.251-2.298-8.012-1.529c-37.271,10.403-61.6,6.383-81.76-3.039
	l59.988-146.684c1.917-4.688-0.329-10.043-5.017-11.961c-4.69-1.917-10.042,0.329-11.961,5.017l-59.154,144.644
	c-5.019-3.186-9.914-6.579-14.853-10.009c-0.516-0.358-1.036-0.718-1.553-1.077l51.757-126.567
	c1.916-4.688-0.33-10.043-5.019-11.961c-4.69-1.917-10.042,0.33-11.961,5.017L299.749,304.258z M310.626,418.741l-17.942-7.337
	l28.819-70.479c5.361,3.413,10.985,6.682,17.013,9.596L310.626,418.741z"/>
<path d="M468.72,14.963l-34.918-14.28c-2.253-0.921-4.776-0.91-7.019,0.032c-2.243,0.94-4.021,2.734-4.941,4.986l-48.597,118.835
	c-1.916,4.688,0.33,10.043,5.019,11.961c4.691,1.919,10.043-0.329,11.961-5.017l45.124-110.346l17.942,7.337l-40.799,99.781
	c-1.916,4.688,0.33,10.043,5.019,11.961c1.137,0.465,2.312,0.685,3.468,0.685c3.615,0,7.04-2.151,8.493-5.702l44.27-108.27
	C475.654,22.234,473.408,16.88,468.72,14.963z"/>
<path d="M223.243,332.588c-3.212,2.489-4.384,7.001-2.825,10.746c1.41,3.388,4.802,5.662,8.474,5.662
	c4.419,0,8.249-3.28,9.028-7.607C239.383,333.253,229.676,327.605,223.243,332.588z"/>
<path d="M245.046,410.958c4.479,0,8.43-3.374,9.074-7.824c1.196-8.281-8.871-13.785-15.158-8.199
	C232.783,400.422,236.829,410.958,245.046,410.958z"/>
<path d="M370.339,408.267c4.417,0,8.264-3.264,9.028-7.599c1.428-8.114-8.211-13.83-14.702-8.771
	c-3.074,2.396-4.255,6.629-2.958,10.289C362.984,405.79,366.516,408.267,370.339,408.267z"/>
<path d="M463.092,145.208H290.93c-4.715-65.677-59.652-117.672-126.508-117.672c-69.942,0-126.843,56.902-126.843,126.843
	c0,29.867,10.583,58.875,29.797,81.683c3.264,3.874,9.049,4.368,12.923,1.105c3.873-3.264,4.368-9.049,1.104-12.923
	C64.97,204.74,55.919,179.929,55.919,154.38c0-59.828,48.673-108.501,108.501-108.501c56.738,0,103.437,43.778,108.108,99.329
	H164.42c-5.065,0-9.171,4.106-9.171,9.171v68.02c-33.53-4.499-59.479-33.277-59.479-68.02c0-5.065-4.106-9.171-9.171-9.171
	c-5.065,0-9.171,4.106-9.171,9.171c0,44.87,34.149,81.909,77.822,86.507v21.61c-20.324-1.685-39.51-8.966-55.949-21.322
	c-4.049-3.044-9.799-2.228-12.841,1.821c-3.042,4.049-2.228,9.799,1.822,12.841c19.644,14.765,42.636,23.323,66.969,25.045v174.358
	c0,31.298,25.462,56.76,56.76,56.76h203.494c31.298,0,56.76-25.462,56.76-56.76V154.38
	C472.263,149.315,468.158,145.208,463.092,145.208z M272.53,163.551c-4.418,52.526-46.412,94.52-98.937,98.938v-21.603
	c40.657-4.28,73.054-36.678,77.334-77.335L272.53,163.551L272.53,163.551z M232.441,163.551
	c-4.097,30.528-28.32,54.752-58.848,58.848v-58.848H232.441z M453.921,455.241c0,21.183-17.234,38.417-38.417,38.417H212.01
	c-21.183,0-38.417-17.234-38.417-38.417V280.889c62.646-4.498,112.839-54.692,117.337-117.338h162.991V455.241z"/>
</svg>